# xmcd CD database file
#
# Track frame offsets:
#	150
#	16442
#	43113
#	65759
#	85917
#	107287
#	129347
#	150595
#	170332
#	191097
#	213782
#
# Disc length: 3129 seconds
#
# Revision: 0
# Processed by: cddbd v1.4PL0 Copyright (c) Steve Scherf et al.
# Submitted via: CDex 1.50beta10
#
DISCID=8a0c370b
DTITLE=Babatunde Lea - Soul Pools
DYEAR=2002
DGENRE=Jazz
TTITLE0=Confrontation
TTITLE1=Jackie and the Beanstalk
TTITLE2=Isabella
TTITLE3=Round the World
TTITLE4=Whoa Baba!
TTITLE5=1055
TTITLE6=Erjecto Moreno
TTITLE7=Yerba Buena
TTITLE8=Outlyer
TTITLE9=Soul Pools
TTITLE10=Carolyn's Dance
EXTD=YEAR: 2002
EXTT0=
EXTT1=
EXTT2=
EXTT3=
EXTT4=
EXTT5=
EXTT6=
EXTT7=
EXTT8=
EXTT9=
EXTT10=
PLAYORDER=
